<?xml version="1.0" encoding="UTF-8" standalone="no"?>
<svg width="288px" height="226px" viewBox="0 0 288 226" version="1.1" xmlns="http://www.w3.org/2000/svg" xmlns:xlink="http://www.w3.org/1999/xlink" xmlns:sketch="http://www.bohemiancoding.com/sketch/ns">
    <!-- Generator: Sketch 3.4.2 (15857) - http://www.bohemiancoding.com/sketch -->
    <title>DrillWell_logo</title>
    <desc>Created with Sketch.</desc>
    <defs></defs>
    <g id="Page-1" stroke="none" stroke-width="1" fill="none" fill-rule="evenodd" sketch:type="MSPage">
        <g id="DrillWell_logo" sketch:type="MSLayerGroup">
            <path d="M89.0000002,60.0000018 L133.122,79.374 L152.999996,38.9999999 L118.282,14.545 L89.0000002,60.0000018 Z" id="Fill-1" fill="#0D77B1" sketch:type="MSShapeGroup"></path>
            <path d="M164,60.9999999 L212.614,79.374 L240.149,34.463 L190.534,26.354 L164,60.9999999 Z" id="Fill-2" fill="#A49462" sketch:type="MSShapeGroup"></path>
            <path d="M118.282,14.545 L158.027,79.374 L212.614,79.374 L178.946,24.46 L118.282,14.545" id="Fill-3" fill="#C2C4C2" sketch:type="MSShapeGroup"></path>
            <path d="M29.935,0.104 L78.535,79.374 L133.122,79.374 L90.601,10.02 L29.935,0.104" id="Fill-4" fill="#C2C4C2" sketch:type="MSShapeGroup"></path>
            <path d="M27.333,129.233 C27.333,124.263 24.264,121.048 18.855,121.048 L15.567,121.048 C13.667,121.048 13.447,121.486 13.447,122.729 L13.447,151.305 C13.447,152.109 13.813,153.205 15.786,153.205 L19.148,153.205 C23.606,153.205 27.333,150.501 27.333,144.362 L27.333,129.233 L27.333,129.233 Z M23.898,163.948 L2.558,163.948 C1.462,163.948 0,163.071 0,161.317 L0,113.447 C0,111.912 0.292,110.45 1.973,110.45 L18.71,110.45 C29.891,110.45 41.22,113.52 41.22,128.21 L41.22,147.358 C41.22,161.829 29.014,163.948 23.898,163.948 L23.898,163.948 Z" id="Fill-5" fill="#1A1918" sketch:type="MSShapeGroup"></path>
            <path d="M74.031,132.083 C73.959,132.96 73.593,133.545 72.643,133.545 C70.669,133.545 68.55,133.984 66.869,134.86 C63.653,136.396 61.387,138.807 61.387,141 L61.387,160.513 C61.387,162.414 61.387,163.948 59.268,163.948 L51.887,163.948 C49.621,163.948 48.963,162.706 48.963,160.805 L48.963,127.26 C48.963,125.798 49.475,124.629 50.937,124.629 L58.757,124.629 C60.292,124.629 61.461,124.994 61.461,126.529 L61.461,129.014 C64.457,125.725 67.892,123.898 72.716,123.898 C73.3,123.898 74.177,123.898 74.177,124.921 L74.031,132.083" id="Fill-6" fill="#1A1918" sketch:type="MSShapeGroup"></path>
            <path d="M89.889,163.948 L81.923,163.948 C79.804,163.948 79.584,162.852 79.584,160.952 L79.584,127.041 C79.584,125.579 80.096,124.629 81.558,124.629 L89.378,124.629 C91.863,124.629 92.009,125.433 92.009,127.041 L92.009,160.952 C92.009,162.852 92.009,163.948 89.889,163.948 L89.889,163.948 Z M89.889,119.221 L81.996,119.221 C80.096,119.221 79.584,118.855 79.584,116.663 L79.584,112.789 C79.584,110.816 80.169,110.45 82.069,110.45 L89.889,110.45 C92.082,110.45 92.009,111.839 92.009,113.447 L92.009,116.882 C92.009,118.49 91.57,119.221 89.889,119.221 L89.889,119.221 Z" id="Fill-7" fill="#1A1918" sketch:type="MSShapeGroup"></path>
            <path d="M110.499,163.948 L102.606,163.948 C100.486,163.948 100.194,163.583 100.194,161.464 L100.194,111.693 C100.194,110.45 100.706,109.646 102.167,109.646 L109.987,109.646 C112.472,109.646 112.619,110.45 112.619,112.058 L112.619,160.952 C112.619,162.852 112.619,163.948 110.499,163.948" id="Fill-8" fill="#1A1918" sketch:type="MSShapeGroup"></path>
            <path d="M131.108,163.948 L123.215,163.948 C121.095,163.948 120.803,163.583 120.803,161.464 L120.803,111.693 C120.803,110.45 121.315,109.646 122.776,109.646 L130.597,109.646 C133.081,109.646 133.227,110.45 133.227,112.058 L133.227,160.952 C133.227,162.852 133.227,163.948 131.108,163.948" id="Fill-9" fill="#1A1918" sketch:type="MSShapeGroup"></path>
            <path d="M196.153,161.975 C195.714,163.437 195.203,163.948 193.156,163.948 L182.779,163.948 C180.659,163.948 180.147,163.364 179.709,161.902 L174.666,145.385 L169.623,161.902 C169.185,163.437 168.673,163.875 166.627,163.875 L157.199,163.875 C155.152,163.875 154.641,163.364 154.13,161.829 L139.22,112.862 C138.489,110.523 139.951,110.45 141.924,110.45 L150.84,110.45 C152.594,110.45 152.667,110.816 153.179,112.351 L163.923,148.235 L169.404,129.891 L164.288,112.862 C163.557,110.523 164.946,110.45 166.919,110.45 L175.908,110.45 C177.59,110.45 177.735,110.816 178.174,112.351 L188.991,148.235 L199.734,112.424 C200.172,110.889 200.245,110.523 201.854,110.523 L208.431,110.523 C210.477,110.523 211.793,110.67 211.208,112.497 L196.153,161.975" id="Fill-10" fill="#1A1918" sketch:type="MSShapeGroup"></path>
            <path d="M228.955,131.06 C224.497,131.06 222.962,135.007 222.889,138.368 C222.889,139.392 222.816,140.122 223.839,140.122 L233.705,140.122 C234.436,140.122 234.509,139.465 234.509,138.442 C234.436,134.569 233.413,131.06 228.955,131.06 L228.955,131.06 Z M243.206,147.577 L222.596,147.577 C222.596,152.766 226.177,155.763 232.609,155.763 C238.602,155.763 243.133,154.813 244.376,154.593 C245.691,154.301 246.495,154.813 246.495,155.763 L246.495,161.171 C246.495,162.852 245.983,163.509 244.083,163.948 C242.987,164.241 235.605,164.972 231.293,164.972 C215.507,164.972 210.172,157.151 210.172,144.581 C210.172,130.037 216.092,123.386 229.247,123.386 C241.379,123.386 247.08,129.379 247.08,138.368 L247.08,144.069 C247.08,146.554 246.86,147.577 243.206,147.577 L243.206,147.577 Z" id="Fill-11" fill="#1A1918" sketch:type="MSShapeGroup"></path>
            <path d="M264.691,163.948 L256.798,163.948 C254.678,163.948 254.386,163.583 254.386,161.464 L254.386,111.693 C254.386,110.45 254.898,109.646 256.36,109.646 L264.179,109.646 C266.664,109.646 266.811,110.45 266.811,112.058 L266.811,160.952 C266.811,162.852 266.811,163.948 264.691,163.948" id="Fill-12" fill="#1A1918" sketch:type="MSShapeGroup"></path>
            <path d="M285.3,163.948 L277.407,163.948 C275.288,163.948 274.996,163.583 274.996,161.464 L274.996,111.693 C274.996,110.45 275.507,109.646 276.969,109.646 L284.789,109.646 C287.274,109.646 287.42,110.45 287.42,112.058 L287.42,160.952 C287.42,162.852 287.42,163.948 285.3,163.948" id="Fill-13" fill="#1A1918" sketch:type="MSShapeGroup"></path>
            <path d="M20.674,200.725 C24.124,200.725 25.536,198.702 25.536,195.608 C25.536,191.988 23.411,190.39 19.926,190.492 L18.192,190.492 L18.192,200.725 L20.674,200.725 L20.674,200.725 Z M20.402,189.472 C24.43,189.472 26.725,191.546 26.725,195.608 C26.725,199.671 24.43,201.745 20.402,201.745 L17.087,201.745 L17.087,189.472 L20.402,189.472 L20.402,189.472 Z" id="Fill-14" fill="#1A1918" sketch:type="MSShapeGroup"></path>
            <path d="M33.882,194.878 C35.446,194.878 37.383,194.775 37.383,192.684 C37.383,190.322 35.174,190.492 34.001,190.492 L31.519,190.492 L31.519,194.878 L33.882,194.878 L33.882,194.878 Z M31.519,201.745 L30.414,201.745 L30.414,189.472 L34.426,189.472 C35.496,189.472 36.38,189.54 37.316,190.118 C38.165,190.628 38.574,191.511 38.574,192.684 C38.574,194.01 37.639,194.963 36.21,195.319 L36.21,195.353 C37.775,195.608 38.115,196.663 38.268,198.091 C38.489,200.079 38.42,200.997 38.913,201.745 L37.639,201.745 C37.35,200.928 37.282,200.062 37.213,199.195 C36.958,196.39 36.788,195.897 34.562,195.897 L31.519,195.897 L31.519,201.745 L31.519,201.745 Z" id="Fill-15" fill="#1A1918" sketch:type="MSShapeGroup"></path>
            <path d="M42.671,189.421 L43.777,189.421 L43.777,201.745 L42.671,201.745 L42.671,189.421 Z" id="Fill-16" fill="#1A1918" sketch:type="MSShapeGroup"></path>
            <path d="M48.128,201.745 L48.128,189.472 L49.233,189.472 L49.233,200.725 L55.403,200.725 L55.403,201.745 L48.128,201.745" id="Fill-17" fill="#1A1918" sketch:type="MSShapeGroup"></path>
            <path d="M58.431,201.745 L58.431,189.472 L59.536,189.472 L59.536,200.725 L65.705,200.725 L65.705,201.745 L58.431,201.745" id="Fill-18" fill="#1A1918" sketch:type="MSShapeGroup"></path>
            <path d="M68.851,189.421 L69.956,189.421 L69.956,201.745 L68.851,201.745 L68.851,189.421 Z" id="Fill-19" fill="#1A1918" sketch:type="MSShapeGroup"></path>
            <path d="M74.171,189.472 L75.429,189.472 L82.195,200.266 L82.229,200.266 L82.229,189.472 L83.333,189.472 L83.333,201.745 L81.94,201.745 L75.311,191.137 L75.277,191.137 L75.277,201.745 L74.171,201.745 L74.171,189.472" id="Fill-20" fill="#1A1918" sketch:type="MSShapeGroup"></path>
            <path d="M96.457,195.489 L96.457,201.235 C94.979,201.813 93.636,202 92.055,202 C88.706,202 86.82,199.383 86.82,195.608 C86.82,192.447 88.502,189.218 92.055,189.218 C94.095,189.218 96.186,190.322 96.372,192.498 L95.115,192.498 C94.894,190.934 93.517,190.237 92.055,190.237 C89.115,190.237 88.009,193.058 88.009,195.608 C88.009,198.736 89.319,200.98 92.633,200.98 C93.551,200.98 94.486,200.725 95.353,200.47 L95.353,196.51 L92.276,196.51 L92.276,195.489 L96.457,195.489" id="Fill-21" fill="#1A1918" sketch:type="MSShapeGroup"></path>
            <path d="M112.303,197.41 L109.652,190.492 L106.949,197.41 L112.303,197.41 L112.303,197.41 Z M104.162,201.745 L109.023,189.472 L110.315,189.472 L115.21,201.745 L114.003,201.745 L112.695,198.43 L106.592,198.43 L105.3,201.745 L104.162,201.745 L104.162,201.745 Z" id="Fill-22" fill="#1A1918" sketch:type="MSShapeGroup"></path>
            <path d="M117.759,189.472 L119.017,189.472 L125.783,200.266 L125.817,200.266 L125.817,189.472 L126.921,189.472 L126.921,201.745 L125.528,201.745 L118.899,191.137 L118.865,191.137 L118.865,201.745 L117.759,201.745 L117.759,189.472" id="Fill-23" fill="#1A1918" sketch:type="MSShapeGroup"></path>
            <path d="M134.453,200.725 C137.903,200.725 139.314,198.702 139.314,195.608 C139.314,191.988 137.189,190.39 133.705,190.492 L131.97,190.492 L131.97,200.725 L134.453,200.725 L134.453,200.725 Z M134.18,189.472 C138.208,189.472 140.503,191.546 140.503,195.608 C140.503,199.671 138.208,201.745 134.18,201.745 L130.866,201.745 L130.866,189.472 L134.18,189.472 L134.18,189.472 Z" id="Fill-24" fill="#1A1918" sketch:type="MSShapeGroup"></path>
            <path d="M151.675,201.745 L150.11,201.745 L146.914,189.472 L148.088,189.472 L150.943,200.64 L150.977,200.64 L154.564,189.472 L155.907,189.472 L159.646,200.64 L159.681,200.64 L162.519,189.472 L163.591,189.472 L160.36,201.745 L158.848,201.745 L155.227,190.611 L155.193,190.611 L151.675,201.745" id="Fill-25" fill="#1A1918" sketch:type="MSShapeGroup"></path>
            <path d="M166.329,201.745 L166.329,189.472 L173.622,189.472 L173.622,190.492 L167.435,190.492 L167.435,194.894 L173.384,194.894 L173.384,195.915 L167.435,195.915 L167.435,200.725 L173.877,200.725 L173.877,201.745 L166.329,201.745" id="Fill-26" fill="#1A1918" sketch:type="MSShapeGroup"></path>
            <path d="M177.532,201.745 L177.532,189.472 L178.637,189.472 L178.637,200.725 L184.808,200.725 L184.808,201.745 L177.532,201.745" id="Fill-27" fill="#1A1918" sketch:type="MSShapeGroup"></path>
            <path d="M187.834,201.745 L187.834,189.472 L188.938,189.472 L188.938,200.725 L195.108,200.725 L195.108,201.745 L187.834,201.745" id="Fill-28" fill="#1A1918" sketch:type="MSShapeGroup"></path>
            <path d="M211.225,192.344 C211.02,190.849 209.728,190.237 208.335,190.237 C205.19,190.237 204.238,193.093 204.238,195.608 C204.238,198.124 205.19,200.98 208.335,200.98 C209.695,200.98 211.055,200.3 211.36,198.77 L212.551,198.77 C212.193,200.827 210.307,202 208.335,202 C204.612,202 203.049,199.009 203.049,195.608 C203.049,192.243 204.63,189.218 208.335,189.218 C210.341,189.218 212.245,190.135 212.415,192.344 L211.225,192.344" id="Fill-29" fill="#1A1918" sketch:type="MSShapeGroup"></path>
            <path d="M215.935,201.745 L215.935,189.472 L223.227,189.472 L223.227,190.492 L217.04,190.492 L217.04,194.894 L222.989,194.894 L222.989,195.915 L217.04,195.915 L217.04,200.725 L223.482,200.725 L223.482,201.745 L215.935,201.745" id="Fill-30" fill="#1A1918" sketch:type="MSShapeGroup"></path>
            <path d="M227.001,189.472 L228.259,189.472 L235.024,200.266 L235.059,200.266 L235.059,189.472 L236.163,189.472 L236.163,201.745 L234.769,201.745 L228.141,191.137 L228.106,191.137 L228.106,201.745 L227.001,201.745 L227.001,189.472" id="Fill-31" fill="#1A1918" sketch:type="MSShapeGroup"></path>
            <path d="M242.759,190.492 L238.799,190.492 L238.799,189.472 L247.773,189.472 L247.773,190.492 L243.881,190.492 L243.864,201.745 L242.776,201.745 L242.759,190.492" id="Fill-32" fill="#1A1918" sketch:type="MSShapeGroup"></path>
            <path d="M254.082,194.878 C255.645,194.878 257.583,194.775 257.583,192.684 C257.583,190.322 255.374,190.492 254.201,190.492 L251.719,190.492 L251.719,194.878 L254.082,194.878 L254.082,194.878 Z M251.719,201.745 L250.614,201.745 L250.614,189.472 L254.626,189.472 C255.696,189.472 256.58,189.54 257.516,190.118 C258.365,190.628 258.773,191.511 258.773,192.684 C258.773,194.01 257.839,194.963 256.41,195.319 L256.41,195.353 C257.975,195.608 258.314,196.663 258.468,198.091 C258.688,200.079 258.62,200.997 259.113,201.745 L257.839,201.745 C257.55,200.928 257.481,200.062 257.413,199.195 C257.158,196.39 256.988,195.897 254.762,195.897 L251.719,195.897 L251.719,201.745 L251.719,201.745 Z" id="Fill-33" fill="#1A1918" sketch:type="MSShapeGroup"></path>
            <path d="M262.785,201.745 L262.785,189.472 L270.078,189.472 L270.078,190.492 L263.891,190.492 L263.891,194.894 L269.84,194.894 L269.84,195.915 L263.891,195.915 L263.891,200.725 L270.333,200.725 L270.333,201.745 L262.785,201.745" id="Fill-34" fill="#1A1918" sketch:type="MSShapeGroup"></path>
            <path d="M30.318,225.745 L30.318,213.472 L37.252,213.472 L37.252,214.492 L31.422,214.492 L31.422,218.827 L37.048,218.827 L37.048,219.846 L31.422,219.846 L31.422,225.745 L30.318,225.745" id="Fill-35" fill="#1A1918" sketch:type="MSShapeGroup"></path>
            <path d="M45.617,224.98 C48.676,224.98 49.9,222.295 49.9,219.608 C49.9,216.923 48.676,214.237 45.617,214.237 C42.557,214.237 41.333,216.923 41.333,219.608 C41.333,222.295 42.557,224.98 45.617,224.98 L45.617,224.98 Z M45.617,226 C42.098,226 40.143,223.433 40.143,219.608 C40.143,215.784 42.098,213.218 45.617,213.218 C49.135,213.218 51.09,215.784 51.09,219.608 C51.09,223.433 49.135,226 45.617,226 L45.617,226 Z" id="Fill-36" fill="#1A1918" sketch:type="MSShapeGroup"></path>
            <path d="M58.299,218.878 C59.863,218.878 61.8,218.775 61.8,216.684 C61.8,214.322 59.591,214.492 58.418,214.492 L55.936,214.492 L55.936,218.878 L58.299,218.878 L58.299,218.878 Z M55.936,225.745 L54.831,225.745 L54.831,213.472 L58.843,213.472 C59.913,213.472 60.797,213.54 61.733,214.118 C62.582,214.628 62.991,215.511 62.991,216.684 C62.991,218.01 62.055,218.963 60.627,219.319 L60.627,219.353 C62.192,219.608 62.532,220.663 62.685,222.091 C62.906,224.079 62.837,224.997 63.33,225.745 L62.055,225.745 C61.767,224.928 61.699,224.062 61.63,223.195 C61.375,220.39 61.205,219.897 58.979,219.897 L55.936,219.897 L55.936,225.745 L55.936,225.745 Z" id="Fill-37" fill="#1A1918" sketch:type="MSShapeGroup"></path>
            <path d="M72.663,213.421 L73.769,213.421 L73.769,225.745 L72.663,225.745 L72.663,213.421 Z" id="Fill-38" fill="#1A1918" sketch:type="MSShapeGroup"></path>
            <path d="M78.069,225.745 L78.069,213.472 L79.837,213.472 L84.444,224.164 L89.152,213.472 L90.834,213.472 L90.834,225.745 L89.73,225.745 L89.73,214.407 L89.696,214.407 L85.004,225.745 L83.9,225.745 L79.208,214.458 L79.174,214.458 L79.174,225.745 L78.069,225.745" id="Fill-39" fill="#1A1918" sketch:type="MSShapeGroup"></path>
            <path d="M96.122,219.387 L98.808,219.387 C100.457,219.387 101.919,218.86 101.919,216.94 C101.919,215.019 100.457,214.492 98.808,214.492 L96.122,214.492 L96.122,219.387 L96.122,219.387 Z M95.018,225.745 L95.018,213.472 L98.094,213.472 C100.457,213.421 103.109,214.016 103.109,216.94 C103.109,219.863 100.457,220.459 98.094,220.407 L96.122,220.407 L96.122,225.745 L95.018,225.745 L95.018,225.745 Z" id="Fill-40" fill="#1A1918" sketch:type="MSShapeGroup"></path>
            <path d="M109.774,218.878 C111.337,218.878 113.275,218.775 113.275,216.684 C113.275,214.322 111.066,214.492 109.893,214.492 L107.411,214.492 L107.411,218.878 L109.774,218.878 L109.774,218.878 Z M107.411,225.745 L106.306,225.745 L106.306,213.472 L110.318,213.472 C111.388,213.472 112.272,213.54 113.207,214.118 C114.057,214.628 114.465,215.511 114.465,216.684 C114.465,218.01 113.53,218.963 112.102,219.319 L112.102,219.353 C113.666,219.608 114.006,220.663 114.16,222.091 C114.38,224.079 114.312,224.997 114.805,225.745 L113.53,225.745 C113.242,224.928 113.173,224.062 113.105,223.195 C112.85,220.39 112.68,219.897 110.454,219.897 L107.411,219.897 L107.411,225.745 L107.411,225.745 Z" id="Fill-41" fill="#1A1918" sketch:type="MSShapeGroup"></path>
            <path d="M123.02,224.98 C126.08,224.98 127.303,222.295 127.303,219.608 C127.303,216.923 126.08,214.237 123.02,214.237 C119.96,214.237 118.737,216.923 118.737,219.608 C118.737,222.295 119.96,224.98 123.02,224.98 L123.02,224.98 Z M123.02,226 C119.501,226 117.546,223.433 117.546,219.608 C117.546,215.784 119.501,213.218 123.02,213.218 C126.539,213.218 128.494,215.784 128.494,219.608 C128.494,223.433 126.539,226 123.02,226 L123.02,226 Z" id="Fill-42" fill="#1A1918" sketch:type="MSShapeGroup"></path>
            <path d="M134.802,224.64 L134.835,224.64 L138.728,213.472 L139.833,213.472 L135.397,225.745 L134.139,225.745 L129.651,213.472 L130.858,213.472 L134.802,224.64" id="Fill-43" fill="#1A1918" sketch:type="MSShapeGroup"></path>
            <path d="M142.519,225.745 L142.519,213.472 L149.812,213.472 L149.812,214.492 L143.624,214.492 L143.624,218.894 L149.574,218.894 L149.574,219.915 L143.624,219.915 L143.624,224.725 L150.067,224.725 L150.067,225.745 L142.519,225.745" id="Fill-44" fill="#1A1918" sketch:type="MSShapeGroup"></path>
            <path d="M157.156,224.725 C160.606,224.725 162.018,222.702 162.018,219.608 C162.018,215.988 159.893,214.39 156.408,214.492 L154.674,214.492 L154.674,224.725 L157.156,224.725 L157.156,224.725 Z M156.884,213.472 C160.912,213.472 163.207,215.546 163.207,219.608 C163.207,223.671 160.912,225.745 156.884,225.745 L153.569,225.745 L153.569,213.472 L156.884,213.472 L156.884,213.472 Z" id="Fill-45" fill="#1A1918" sketch:type="MSShapeGroup"></path>
            <path d="M175.941,218.878 C177.505,218.878 179.442,218.775 179.442,216.684 C179.442,214.322 177.233,214.492 176.06,214.492 L173.578,214.492 L173.578,218.878 L175.941,218.878 L175.941,218.878 Z M173.578,225.745 L172.474,225.745 L172.474,213.472 L176.485,213.472 C177.556,213.472 178.439,213.54 179.375,214.118 C180.225,214.628 180.633,215.511 180.633,216.684 C180.633,218.01 179.698,218.963 178.269,219.319 L178.269,219.353 C179.834,219.608 180.174,220.663 180.327,222.091 C180.548,224.079 180.479,224.997 180.973,225.745 L179.698,225.745 C179.409,224.928 179.341,224.062 179.272,223.195 C179.018,220.39 178.848,219.897 176.621,219.897 L173.578,219.897 L173.578,225.745 L173.578,225.745 Z" id="Fill-46" fill="#1A1918" sketch:type="MSShapeGroup"></path>
            <path d="M184.644,225.745 L184.644,213.472 L191.937,213.472 L191.937,214.492 L185.75,214.492 L185.75,218.894 L191.699,218.894 L191.699,219.915 L185.75,219.915 L185.75,224.725 L192.192,224.725 L192.192,225.745 L184.644,225.745" id="Fill-47" fill="#1A1918" sketch:type="MSShapeGroup"></path>
            <path d="M203.36,216.344 C203.156,214.849 201.864,214.237 200.471,214.237 C197.326,214.237 196.374,217.093 196.374,219.608 C196.374,222.124 197.326,224.98 200.471,224.98 C201.831,224.98 203.19,224.3 203.496,222.77 L204.686,222.77 C204.329,224.827 202.442,226 200.471,226 C196.748,226 195.185,223.009 195.185,219.608 C195.185,216.243 196.766,213.218 200.471,213.218 C202.477,213.218 204.381,214.135 204.551,216.344 L203.36,216.344" id="Fill-48" fill="#1A1918" sketch:type="MSShapeGroup"></path>
            <path d="M212.949,224.98 C216.009,224.98 217.232,222.295 217.232,219.608 C217.232,216.923 216.009,214.237 212.949,214.237 C209.89,214.237 208.666,216.923 208.666,219.608 C208.666,222.295 209.89,224.98 212.949,224.98 L212.949,224.98 Z M212.949,226 C209.431,226 207.476,223.433 207.476,219.608 C207.476,215.784 209.431,213.218 212.949,213.218 C216.468,213.218 218.423,215.784 218.423,219.608 C218.423,223.433 216.468,226 212.949,226 L212.949,226 Z" id="Fill-49" fill="#1A1918" sketch:type="MSShapeGroup"></path>
            <path d="M224.731,224.64 L224.765,224.64 L228.657,213.472 L229.763,213.472 L225.326,225.745 L224.068,225.745 L219.58,213.472 L220.787,213.472 L224.731,224.64" id="Fill-50" fill="#1A1918" sketch:type="MSShapeGroup"></path>
            <path d="M232.448,225.745 L232.448,213.472 L239.741,213.472 L239.741,214.492 L233.554,214.492 L233.554,218.894 L239.503,218.894 L239.503,219.915 L233.554,219.915 L233.554,224.725 L239.996,224.725 L239.996,225.745 L232.448,225.745" id="Fill-51" fill="#1A1918" sketch:type="MSShapeGroup"></path>
            <path d="M247.171,218.878 C248.734,218.878 250.672,218.775 250.672,216.684 C250.672,214.322 248.463,214.492 247.29,214.492 L244.808,214.492 L244.808,218.878 L247.171,218.878 L247.171,218.878 Z M244.808,225.745 L243.703,225.745 L243.703,213.472 L247.715,213.472 C248.785,213.472 249.669,213.54 250.604,214.118 C251.454,214.628 251.862,215.511 251.862,216.684 C251.862,218.01 250.927,218.963 249.499,219.319 L249.499,219.353 C251.063,219.608 251.403,220.663 251.557,222.091 C251.777,224.079 251.709,224.997 252.202,225.745 L250.927,225.745 C250.639,224.928 250.57,224.062 250.502,223.195 C250.247,220.39 250.077,219.897 247.851,219.897 L244.808,219.897 L244.808,225.745 L244.808,225.745 Z" id="Fill-52" fill="#1A1918" sketch:type="MSShapeGroup"></path>
            <path d="M258.121,220.441 L253.6,213.472 L255.011,213.472 L258.768,219.404 L262.524,213.472 L263.714,213.472 L259.227,220.407 L259.227,225.745 L258.121,225.745 L258.121,220.441" id="Fill-53" fill="#1A1918" sketch:type="MSShapeGroup"></path>
        </g>
    </g>
</svg>